<?xml version="1.0" standalone="no"?>
<!DOCTYPE svg PUBLIC "-//W3C//DTD SVG 20010904//EN"
 "http://www.w3.org/TR/2001/REC-SVG-20010904/DTD/svg10.dtd">
<svg version="1.0" xmlns="http://www.w3.org/2000/svg"
 width="1024.000000pt" height="1024.000000pt" viewBox="0 0 1024.000000 1024.000000"
 preserveAspectRatio="xMidYMid meet">

<g transform="translate(0.000000,1024.000000) scale(0.100000,-0.100000)"
fill="#000000" stroke="none">
<path d="M4375 7981 c-29 -12 -51 -40 -73 -91 -20 -48 -65 -209 -82 -300 -16
-81 -14 -380 2 -420 12 -29 11 -41 -13 -112 -15 -43 -30 -112 -34 -153 -4 -41
-10 -75 -14 -75 -4 0 -49 7 -99 16 -50 8 -104 14 -119 12 -50 -6 -65 -79 -19
-99 11 -5 68 -18 126 -27 l105 -18 0 -39 0 -40 -88 -7 c-95 -7 -137 -25 -137
-58 0 -11 -3 -20 -8 -20 -25 0 -496 -64 -592 -80 -63 -11 -232 -35 -375 -55
-359 -49 -551 -81 -610 -101 -71 -25 -164 -119 -194 -197 l-21 -59 2 -1221 3
-1222 22 -48 c12 -26 33 -62 45 -80 20 -28 23 -42 20 -112 -4 -90 23 -192 61
-233 41 -44 141 -90 572 -262 236 -95 445 -180 465 -190 34 -17 229 -101 405
-175 50 -21 126 -53 170 -73 568 -248 637 -268 785 -237 78 16 967 313 1540
515 314 110 607 209 1091 370 262 87 495 168 518 180 78 39 111 155 92 326
-12 113 -43 181 -104 225 -51 37 -70 46 -257 114 -80 29 -174 64 -210 78 -114
45 -572 214 -650 241 -41 14 -110 34 -153 45 -43 11 -81 22 -84 24 -2 3 0 14
6 25 8 15 24 20 78 25 167 12 403 168 514 337 107 164 125 200 160 320 36 128
45 252 30 455 -14 182 -4 307 28 381 13 29 54 78 115 137 71 70 96 102 105
132 48 174 -81 335 -268 335 -169 0 -381 -154 -471 -341 -62 -131 -74 -190
-74 -369 0 -85 3 -234 8 -330 9 -194 -1 -262 -50 -347 -30 -51 -42 -54 -48
-10 -50 352 -156 614 -362 894 -16 22 -15 24 42 75 69 64 178 197 206 253 11
22 21 41 23 43 1 1 35 -11 75 -28 87 -36 104 -37 124 -8 37 52 5 96 -98 138
-56 22 -62 31 -50 75 5 19 9 20 106 11 93 -9 102 -8 114 9 20 27 17 42 -11 70
-19 20 -34 25 -77 25 -87 0 -98 6 -98 51 0 22 3 39 8 39 33 0 199 33 209 42
22 18 15 56 -12 74 -21 14 -38 15 -110 7 l-84 -9 -5 26 c-3 14 -8 47 -11 73
-3 26 -16 73 -27 105 -18 48 -22 90 -28 277 -8 232 -19 305 -76 486 -50 161
-81 196 -156 184 -139 -23 -432 -153 -505 -224 l-40 -38 -69 23 c-180 59 -450
58 -681 -4 l-63 -16 -32 30 c-120 113 -459 255 -533 225z m141 -165 c70 -24
206 -89 257 -124 l27 -19 -61 -36 c-34 -21 -67 -37 -73 -37 -6 0 -38 23 -71
51 -70 58 -102 70 -121 44 -20 -27 -44 -147 -44 -219 0 -59 -4 -71 -35 -115
-19 -26 -35 -56 -35 -65 0 -10 -4 -14 -10 -11 -32 20 20 434 67 528 7 15 17
27 22 27 4 0 39 -11 77 -24z m1807 -68 c53 -169 59 -212 66 -458 7 -218 9
-240 33 -305 14 -38 29 -91 32 -116 l7 -47 -103 -12 c-136 -16 -234 -38 -249
-56 -9 -11 -9 -20 0 -41 l12 -26 117 7 c64 3 141 9 170 12 l52 7 0 -47 c0 -49
-17 -135 -30 -149 -4 -4 -58 4 -120 18 -163 36 -200 33 -200 -21 0 -31 26 -47
149 -90 58 -20 110 -40 114 -44 11 -10 -98 -154 -166 -219 -165 -158 -354
-258 -553 -292 -84 -14 -117 -10 -209 27 -58 23 -86 27 -165 28 -80 0 -105 -4
-156 -25 l-62 -26 -78 25 c-137 42 -160 52 -250 105 -63 37 -121 84 -205 167
-98 97 -123 128 -157 194 l-39 80 31 15 c24 13 31 22 31 46 0 27 -4 31 -42 39
-46 11 -48 14 -58 93 l-7 52 43 -2 c41 -2 43 0 53 32 9 30 7 36 -13 52 -13 11
-36 19 -52 19 -35 0 -35 5 -13 121 38 205 195 429 386 553 74 48 237 136 253
136 2 0 2 -42 -2 -93 l-6 -93 32 -27 c36 -30 44 -32 71 -17 18 10 25 28 70
188 17 60 26 75 47 83 15 5 30 6 34 2 4 -4 0 -37 -10 -73 -43 -155 -32 -251
31 -258 47 -6 72 32 119 177 23 73 49 139 56 147 18 18 63 18 63 1 0 -8 -7
-28 -16 -46 -22 -44 -44 -129 -44 -170 0 -66 64 -95 107 -48 12 12 44 70 72
130 27 59 56 107 63 107 8 0 22 -6 33 -14 11 -8 39 -19 62 -26 l43 -13 52 49
c72 68 134 109 234 155 73 34 197 76 229 78 6 1 23 -40 38 -91z m-2158 -1248
c-3 -5 -38 -29 -78 -52 -81 -47 -97 -62 -97 -94 0 -13 -4 -25 -9 -29 -5 -3
-139 -23 -298 -45 -391 -54 -612 -86 -773 -110 -74 -11 -182 -27 -240 -35
-256 -37 -271 -42 -290 -99 -8 -24 -12 -357 -13 -1181 -2 -1136 -2 -1147 18
-1161 32 -23 134 -3 645 128 195 50 438 110 540 133 102 24 266 64 365 89 99
26 245 61 324 77 l144 30 21 -20 20 -20 -36 -15 c-62 -26 -547 -156 -1203
-321 -209 -53 -404 -103 -433 -111 -82 -24 -423 -104 -443 -104 -11 0 -26 18
-41 48 l-23 47 -3 1190 c-3 1324 -7 1237 66 1307 20 19 52 40 71 47 34 11 371
66 591 96 63 9 203 29 310 45 107 16 299 43 426 60 242 32 300 45 374 85 47
25 75 32 65 15z m62 -144 c-5 -15 -67 -21 -67 -6 0 13 40 29 58 22 7 -2 11
-10 9 -16z m2752 -287 c70 -39 181 -127 181 -142 0 -7 -9 -35 -19 -62 -30 -78
-34 -129 -35 -450 -2 -340 -9 -381 -86 -541 -55 -113 -173 -235 -280 -288 -67
-33 -165 -66 -197 -66 -7 0 -1 31 18 88 17 48 35 125 40 171 8 67 14 87 32
102 12 10 25 18 28 19 8 0 94 120 114 159 67 131 80 237 59 476 -25 276 -10
438 48 533 11 17 25 32 31 32 5 0 35 -14 66 -31z m-3827 -66 c26 -23 23 -69
-7 -98 -13 -14 -28 -25 -32 -25 -23 1 -63 54 -63 84 0 48 64 73 102 39z m-228
-24 c33 -26 34 -67 1 -103 -29 -32 -42 -32 -72 -4 -30 28 -30 74 -1 105 26 28
38 29 72 2z m1664 -23 c15 -8 36 -24 47 -36 l20 -23 -34 -26 c-138 -106 -201
-206 -208 -333 -4 -66 -2 -78 24 -128 47 -89 150 -150 255 -150 21 0 38 -3 37
-7 0 -5 -6 -55 -12 -112 l-12 -103 -51 -19 c-65 -24 -167 -117 -212 -192 -45
-75 -66 -156 -59 -232 5 -55 3 -64 -23 -103 -32 -48 -45 -109 -38 -182 6 -57
16 -51 -134 -85 -60 -14 -311 -75 -556 -136 -246 -60 -559 -136 -697 -170
-137 -33 -293 -71 -345 -84 -52 -13 -98 -20 -103 -16 -8 8 -5 1826 3 1834 3 3
102 19 220 37 118 17 328 49 465 71 216 35 572 89 1125 169 80 11 168 25 195
29 28 5 54 9 58 10 4 0 20 -5 35 -13z m-1896 -13 c25 -22 23 -66 -5 -99 -28
-32 -55 -27 -80 16 -38 64 31 132 85 83z m3491 -135 c126 -202 180 -323 228
-511 59 -231 73 -386 49 -549 -33 -231 -166 -431 -343 -518 -107 -53 -192 -70
-352 -70 -101 0 -147 -5 -205 -21 -117 -33 -167 -38 -231 -25 -101 21 -179 94
-179 167 1 73 59 155 135 190 81 37 163 19 282 -62 49 -34 51 -34 75 -12 35
31 19 109 -32 151 -26 22 -94 51 -148 63 l-52 11 6 41 c9 59 46 136 84 174 18
18 61 47 96 64 115 57 229 51 366 -17 56 -29 76 -30 94 -6 35 46 -10 102 -125
154 -78 36 -206 48 -292 28 -78 -18 -166 -67 -226 -127 -59 -59 -124 -183
-143 -273 -12 -53 -14 -57 -58 -75 -25 -10 -63 -34 -85 -54 -39 -35 -97 -136
-97 -168 0 -23 -14 -6 -30 37 -21 54 -79 141 -119 179 l-36 34 1 226 c1 174 5
251 20 335 l19 110 57 22 c31 12 72 33 91 48 33 25 34 25 51 7 45 -50 156 -89
320 -111 155 -22 289 36 232 99 -13 14 -38 19 -114 24 -237 15 -380 75 -431
180 -27 55 -27 109 1 158 31 56 75 74 174 73 95 -1 156 -25 263 -102 86 -63
103 -72 140 -72 24 0 32 5 37 25 6 23 2 53 -12 88 -4 11 5 16 33 22 84 15 351
128 368 155 13 20 25 8 88 -92z m-1237 -29 c21 -8 21 -8 3 -61 -23 -66 -24
-121 -2 -183 l16 -48 -26 -23 c-70 -60 -243 -87 -315 -50 -76 39 -96 144 -44
227 46 73 125 128 209 148 39 9 122 4 159 -10z m-236 -986 c0 -142 -1 -143
-69 -143 -31 0 -69 -7 -85 -15 -16 -9 -31 -13 -34 -10 -12 11 33 140 62 178
28 36 96 86 119 87 4 0 7 -44 7 -97z m47 -287 c63 -30 104 -82 134 -174 12
-37 25 -71 30 -76 9 -10 -4 -20 -101 -68 -87 -44 -179 -46 -256 -6 -98 51
-129 117 -99 208 39 117 174 171 292 116z m1691 -302 c42 -20 165 -66 272
-104 107 -37 231 -82 275 -100 75 -30 213 -82 580 -216 199 -73 238 -112 158
-153 -48 -24 -254 -98 -419 -151 -71 -23 -201 -66 -289 -96 -88 -29 -203 -67
-255 -82 -52 -16 -160 -53 -240 -81 -273 -98 -606 -212 -1205 -413 -779 -261
-713 -255 -1090 -96 -104 44 -242 103 -305 130 -63 28 -185 78 -270 113 -85
34 -229 97 -320 139 -91 43 -217 99 -280 125 -379 160 -479 201 -485 201 -16
0 -105 43 -105 51 0 5 13 9 28 9 47 0 315 57 497 105 94 25 226 58 295 75 69
16 224 54 345 86 121 31 272 69 335 85 63 15 140 37 171 48 31 11 92 28 135
37 44 8 127 31 185 50 81 26 123 34 180 34 84 0 196 24 319 69 88 32 106 33
134 2 16 -17 12 -20 -81 -56 -139 -53 -203 -84 -203 -99 0 -20 41 -53 102 -81
85 -39 114 -41 209 -12 46 14 108 29 136 33 101 13 92 53 -16 75 -71 14 -100
33 -85 57 15 23 43 20 149 -19 83 -30 98 -32 199 -30 122 2 141 10 132 53 l-5
28 67 0 c119 0 285 19 366 40 109 29 183 69 238 129 26 28 52 51 58 51 6 0 46
-16 88 -36z m1345 -746 c-3 -33 -12 -59 -23 -69 -11 -9 -155 -62 -322 -118
-433 -145 -1058 -357 -1093 -371 -55 -22 -367 -130 -670 -232 -165 -55 -435
-147 -600 -204 -333 -115 -402 -134 -490 -134 -109 0 -148 14 -985 370 -460
195 -551 233 -605 250 -87 26 -204 73 -277 111 -42 21 -84 39 -95 39 -14 0
-11 6 15 26 25 20 32 33 32 61 0 21 -8 45 -17 56 -10 11 -13 18 -7 16 17 -6
149 -63 152 -65 2 -1 -4 -16 -12 -33 -25 -47 -21 -96 10 -120 54 -43 104 -12
104 64 0 25 3 45 6 45 3 0 27 -9 53 -21 l48 -20 -1 -58 c-1 -60 13 -91 42 -91
22 0 62 40 62 62 0 30 9 27 240 -77 58 -26 191 -82 295 -125 105 -42 271 -112
370 -154 99 -43 243 -103 320 -134 l140 -57 120 0 120 1 485 162 c538 180 639
214 1015 343 143 49 543 184 889 299 346 116 636 215 645 220 34 20 40 12 34
-42z m-5330 -130 c62 -22 113 -42 115 -43 1 -1 -4 -15 -13 -31 -17 -33 -20
-110 -5 -117 6 -3 7 -5 3 -4 -5 1 -49 23 -99 49 -99 51 -134 85 -134 129 0 28
9 59 17 59 2 0 54 -19 116 -42z"/>
<path d="M6144 7682 c-112 -62 -214 -157 -198 -183 3 -6 36 -30 73 -54 73 -47
137 -110 200 -197 23 -32 46 -58 52 -58 20 0 29 54 29 171 0 183 -39 341 -85
347 -11 1 -43 -11 -71 -26z"/>
<path d="M4632 6913 c-118 -58 -119 -233 -3 -293 52 -26 96 -25 146 3 57 32
85 79 85 142 0 121 -122 201 -228 148z"/>
<path d="M5685 6920 c-35 -13 -95 -88 -96 -118 -3 -86 12 -127 66 -167 100
-77 255 -1 255 124 0 55 -37 121 -84 150 -35 22 -103 27 -141 11z"/>
<path d="M5150 6783 c-57 -9 -69 -14 -75 -33 -7 -23 7 -54 43 -93 30 -31 26
-46 -22 -81 -22 -17 -30 -18 -46 -8 -22 14 -47 16 -53 5 -31 -56 8 -123 72
-123 36 0 107 40 126 70 4 6 23 -4 51 -29 56 -49 85 -57 132 -34 42 20 63 63
45 91 -8 13 -22 16 -56 14 -39 -3 -51 1 -72 22 -30 30 -32 57 -6 80 24 22 45
71 38 90 -11 27 -99 42 -177 29z"/>
<path d="M3635 5710 c-3 -6 3 -24 15 -41 27 -37 36 -98 20 -129 -10 -18 -9
-25 4 -38 21 -22 35 -7 51 55 14 56 4 106 -28 141 -21 23 -51 29 -62 12z"/>
<path d="M3797 5693 c-4 -3 2 -20 12 -37 34 -55 81 -185 81 -224 0 -38 -30
-114 -49 -126 -23 -15 -9 -27 27 -24 33 3 39 8 62 53 35 71 34 151 -4 225 -58
112 -104 159 -129 133z"/>
<path d="M3520 5652 c0 -17 -9 -51 -20 -77 -23 -53 -26 -105 -7 -105 7 0 28
35 46 77 30 70 32 80 20 102 -21 37 -39 38 -39 3z"/>
<path d="M3210 5564 c-47 -8 -148 -23 -225 -34 -210 -31 -285 -58 -285 -104 0
-23 31 -48 49 -41 42 17 561 105 618 105 9 0 13 15 13 45 l0 45 -42 -1 c-24
-1 -81 -8 -128 -15z"/>
<path d="M3577 5498 c-37 -29 -50 -138 -23 -203 17 -39 56 -68 80 -59 21 8 21
7 -10 71 -27 54 -28 83 -8 176 7 30 -10 37 -39 15z"/>
<path d="M3706 5438 c-23 -33 -19 -64 12 -100 39 -43 62 -34 62 26 0 85 -39
124 -74 74z"/>
<path d="M3190 5317 c-85 -12 -161 -26 -167 -30 -7 -5 -13 -24 -13 -43 0 -42
-7 -42 243 -12 l188 23 -3 40 -3 40 -45 2 c-25 0 -115 -9 -200 -20z"/>
<path d="M2838 5249 c-28 -16 -23 -67 7 -81 19 -9 29 -8 50 6 25 16 31 39 19
70 -7 18 -50 21 -76 5z"/>
<path d="M3885 5220 c-3 -5 8 -33 25 -63 38 -67 40 -124 7 -190 -25 -48 -21
-67 14 -67 26 0 82 120 82 173 0 48 -32 118 -65 141 -25 18 -54 21 -63 6z"/>
<path d="M3751 5177 c-14 -17 -41 -94 -41 -116 0 -10 17 -37 37 -60 l36 -43
16 28 c22 43 20 157 -3 183 -22 25 -30 26 -45 8z m10 -90 c-8 -8 -11 -7 -11 4
0 9 3 19 7 23 4 4 9 2 11 -4 3 -7 -1 -17 -7 -23z"/>
<path d="M3597 5162 c-62 -68 -62 -221 -1 -273 29 -25 50 -29 71 -14 17 13 17
14 -4 37 -56 59 -65 149 -23 213 11 17 20 36 20 43 0 18 -45 15 -63 -6z"/>
<path d="M3280 5074 c-63 -8 -150 -18 -194 -23 -81 -9 -96 -18 -96 -58 0 -40
25 -42 242 -15 224 28 227 29 212 86 -7 30 -1 29 -164 10z"/>
<path d="M3238 4835 c-108 -12 -193 -27 -202 -34 -20 -17 -21 -55 -1 -71 17
-14 28 -13 272 21 111 15 175 28 178 37 2 7 2 26 -2 42 -7 36 11 35 -245 5z"/>
<path d="M3890 4785 c0 -8 18 -42 40 -76 39 -60 51 -102 29 -96 -23 5 -34 -31
-20 -65 25 -58 25 -130 2 -179 -13 -25 -17 -47 -12 -52 20 -20 47 0 75 56 28
54 29 60 18 108 -7 28 -12 82 -12 121 0 73 -21 134 -62 178 -22 23 -58 27 -58
5z"/>
<path d="M3781 4766 c-14 -15 -25 -42 -28 -69 -4 -36 -1 -48 20 -73 21 -24 29
-27 44 -18 12 8 17 21 15 40 -2 16 -5 55 -8 87 -3 31 -9 57 -13 57 -4 0 -18
-11 -30 -24z"/>
<path d="M2827 4713 c-14 -13 -6 -33 24 -68 33 -37 59 -44 79 -20 18 22 8 47
-29 72 -34 23 -62 29 -74 16z"/>
<path d="M3540 4641 c-25 -10 -85 -23 -135 -29 -171 -21 -380 -54 -398 -64
-13 -7 -17 -18 -15 -41 3 -28 7 -32 36 -35 32 -3 296 37 392 60 25 6 54 19 65
29 14 12 36 17 76 17 62 -1 99 14 99 40 0 44 -46 53 -120 23z"/>
<path d="M3619 4496 c-31 -71 -34 -126 -11 -179 22 -49 60 -81 86 -71 21 8 20
20 -5 55 -34 47 -39 83 -23 145 20 76 18 94 -7 94 -14 0 -26 -13 -40 -44z"/>
<path d="M3774 4519 c-3 -6 -9 -40 -12 -75 -4 -58 -2 -67 18 -89 13 -14 29
-25 36 -25 21 0 41 85 35 152 0 10 -14 24 -31 33 -35 18 -37 18 -46 4z"/>
<path d="M2807 4473 c-13 -13 -7 -32 14 -44 32 -16 48 4 24 31 -19 21 -28 24
-38 13z"/>
<path d="M3222 4345 c-112 -18 -208 -37 -213 -42 -6 -6 -9 -23 -7 -39 3 -28 4
-29 63 -29 67 0 415 53 428 65 5 4 5 24 2 44 -9 45 -2 45 -273 1z"/>
<path d="M2764 4265 c-3 -8 -3 -19 1 -25 11 -17 66 -42 81 -36 19 7 18 62 -2
70 -29 11 -75 6 -80 -9z"/>
<path d="M2727 4073 c-14 -13 -6 -54 13 -73 17 -17 24 -18 45 -8 30 13 33 48
7 71 -19 17 -53 22 -65 10z"/>
<path d="M5338 4381 c-9 -15 -23 -21 -50 -21 -47 0 -61 -22 -47 -73 11 -40 82
-110 107 -105 46 9 88 138 61 187 -19 33 -54 39 -71 12z"/>
<path d="M4560 4435 c-5 -7 -9 -23 -9 -36 1 -13 -6 -37 -15 -54 -18 -33 -20
-63 -7 -84 8 -13 87 -19 98 -7 3 3 0 26 -6 51 -7 29 -8 52 -2 63 5 9 11 28 12
41 3 21 -1 26 -28 32 -21 4 -36 2 -43 -6z"/>
<path d="M4663 4443 c-14 -5 -17 -41 -7 -67 3 -9 16 -16 29 -16 22 0 21 -2
-12 -37 -40 -45 -40 -73 1 -86 25 -8 32 -7 47 12 26 32 24 178 -2 191 -19 11
-36 12 -56 3z"/>
<path d="M6197 4096 c-114 -63 -116 -66 -71 -106 36 -31 40 -32 98 -27 34 3
106 18 161 31 136 35 156 59 77 92 -57 24 -154 54 -171 54 -9 0 -51 -20 -94
-44z"/>
<path d="M6574 3996 c-11 -8 -40 -19 -64 -26 -25 -6 -85 -25 -135 -40 -49 -16
-107 -32 -128 -36 -22 -4 -51 -17 -65 -29 l-26 -22 25 -14 c41 -23 193 -79
214 -79 36 0 439 139 452 156 25 34 3 46 -172 93 -53 14 -77 14 -101 -3z"/>
<path d="M5925 3993 c-57 -14 -174 -57 -203 -75 l-33 -20 26 -14 c15 -7 58
-25 97 -39 l70 -25 86 26 c125 37 142 44 154 67 14 27 -5 41 -90 67 -66 20
-72 21 -107 13z"/>
<path d="M4508 3875 c-124 -34 -158 -50 -158 -74 0 -33 25 -47 147 -86 127
-40 129 -40 256 -2 119 36 128 59 33 91 -53 18 -106 62 -106 87 0 16 -82 8
-172 -16z"/>
<path d="M5477 3865 c-21 -12 -82 -37 -135 -55 -90 -32 -94 -34 -67 -43 17 -5
65 -22 109 -38 l79 -29 96 26 c53 14 113 30 134 35 28 8 37 15 35 27 -4 20
-160 102 -192 101 -11 0 -38 -11 -59 -24z"/>
<path d="M5940 3781 c-19 -10 -96 -38 -170 -61 -378 -118 -451 -140 -515 -160
-38 -12 -160 -50 -270 -85 -110 -35 -258 -80 -329 -100 -71 -20 -138 -42 -149
-50 -18 -13 -18 -14 5 -26 50 -28 174 -82 199 -86 15 -3 75 11 140 32 326 104
725 234 894 291 169 56 364 115 465 141 40 10 54 45 23 61 -28 15 -208 62
-234 62 -13 -1 -40 -9 -59 -19z"/>
<path d="M4090 3764 c-47 -14 -116 -34 -154 -45 l-69 -21 24 -23 c28 -27 260
-105 313 -105 34 0 206 51 236 70 18 11 19 11 -67 54 -40 20 -87 49 -106 66
-42 36 -63 37 -177 4z"/>
<path d="M5070 3743 c-8 -3 -66 -24 -127 -45 -62 -22 -113 -43 -113 -47 0 -10
48 -34 133 -67 l69 -26 96 30 c54 17 116 36 140 42 25 6 42 17 42 25 0 8 -35
32 -80 55 -75 38 -121 47 -160 33z"/>
<path d="M3610 3626 c-163 -46 -183 -59 -136 -90 35 -22 253 -96 286 -96 36 0
250 56 263 69 18 18 -12 39 -91 65 -42 15 -97 40 -122 56 -25 16 -54 30 -65
29 -11 0 -72 -15 -135 -33z"/>
<path d="M4590 3596 c-63 -17 -137 -40 -164 -50 -44 -17 -47 -20 -32 -32 10
-7 41 -18 69 -25 29 -6 69 -20 89 -30 49 -25 63 -24 182 12 55 16 112 33 126
37 28 8 34 40 10 53 -37 19 -153 69 -159 68 -3 -1 -58 -16 -121 -33z"/>
<path d="M6080 3541 c-44 -24 -274 -104 -490 -171 -386 -121 -420 -133 -420
-150 0 -26 14 -34 155 -80 72 -24 174 -60 228 -82 l98 -39 147 50 c233 79 652
226 715 250 62 24 91 47 81 63 -16 25 -417 179 -464 178 -8 -1 -31 -9 -50 -19z"/>
<path d="M3135 3496 c-187 -52 -185 -51 -185 -75 0 -15 14 -25 58 -41 124 -47
261 -90 286 -90 15 0 62 14 105 30 44 17 98 34 122 38 50 9 72 34 48 57 -8 8
-59 31 -112 50 -54 19 -114 43 -135 54 l-37 19 -150 -42z"/>
<path d="M4235 3495 c-5 -2 -50 -15 -100 -29 -97 -29 -185 -65 -185 -76 0 -4
12 -12 28 -18 15 -5 67 -24 116 -42 l90 -33 125 43 c69 23 134 46 144 51 37
21 16 38 -91 73 -59 20 -109 36 -112 35 -3 0 -9 -2 -15 -4z"/>
<path d="M3685 3330 c-60 -17 -145 -42 -187 -56 -67 -22 -78 -29 -78 -49 0
-31 12 -39 112 -75 l86 -31 139 50 c259 94 278 103 241 123 -38 21 -147 61
-173 64 -16 2 -79 -10 -140 -26z"/>
<path d="M4275 3255 c-44 -14 -125 -36 -180 -50 -128 -33 -343 -104 -351 -116
-3 -5 -2 -19 1 -30 10 -30 147 -93 200 -92 22 0 96 20 165 43 69 24 203 67
299 94 175 51 217 73 181 96 -21 13 -209 80 -223 79 -7 0 -48 -11 -92 -24z"/>
<path d="M3846 7341 l-28 -29 -35 24 c-20 13 -39 24 -43 24 -4 0 -24 -18 -44
-40 -33 -37 -35 -42 -24 -68 7 -15 42 -54 77 -87 l63 -60 74 79 c41 43 74 87
74 97 0 21 -56 89 -74 89 -7 0 -25 -13 -40 -29z"/>
</g>
</svg>
